<?xml version="1.0" encoding="utf-8"?>
<!-- Generator: Adobe Illustrator 15.0.2, SVG Export Plug-In . SVG Version: 6.00 Build 0)  -->
<!DOCTYPE svg PUBLIC "-//W3C//DTD SVG 1.1//EN" "http://www.w3.org/Graphics/SVG/1.1/DTD/svg11.dtd">
<svg version="1.1" id="Layer_1" xmlns="http://www.w3.org/2000/svg" xmlns:xlink="http://www.w3.org/1999/xlink" x="0px" y="0px"
	 width="288px" height="140px" viewBox="0 0 288 140" enable-background="new 0 0 288 140" xml:space="preserve">
<g display="none">
	<path display="inline" fill="#676767" d="M10.681,62.565c-0.458,0.524-0.983,0.524-1.376,1.048
		c-0.917,0.524-1.441,1.048-2.424,1.573c0,0.917-0.917,0.327-0.917,1.376c-1.048-0.459-1.573,0-2.621-0.459
		c-1.572-0.59-2.621-1.441-2.752-3.014c0-0.524-0.328-0.917,0-1.442c0-0.982,0-2.031,0.917-2.948v-1.507
		c0.917-1.441,1.572-3.538,2.097-4.521c0.786-1.441,1.114-2.49,1.638-3.604c0,0,0.458-1.048,0.721-1.703
		c-0.852,0-1.245-0.131-1.769-0.197c-1.966-0.458-2.424-1.834-2.031-4.324c0.655,0.065,0.589,0.655,0.917,0.852
		c1.245,0.983,1.376,1.114,3.8,1.114c0.393-0.524,0.917-1.507,0.393-1.965c0.983-0.524,0.983-1.966,1.9-2.949
		c0.458-1.965,1.704-3.341,1.245-5.832c0.393-1.441-0.458-2.686-0.982-3.669c0.131-0.197-0.131-0.262,0.393-0.262
		c0.458,0,0.458,0.197,0.982,0.655l0.459,0.328c0,0,0,0.983,0.524,0.524c0.983,0.982,2.031,2.424,2.031,4.39
		c0,0.983-0.721,1.9-1.245,3.342c-0.852,1.507-1.77,3.8-2.163,5.242c0.459,0,1.769,0.065,2.293,0
		c0.655-0.066,1.441-0.066,2.162-0.066c1.966-0.196,4.521-0.721,5.897-1.375c0,0.065,0.328,0,0.786-0.262l0.459-1.311
		c0.917-1.507,1.375-2.948,2.228-4.521v-0.458c0.524-1.048,1.376-3.014,1.834-3.997c0.524-0.982,0.983-1.507,0.917-2.49
		c0.917-1.114,1.441-2.555,1.9-3.538c0.393-0.983,1.507-1.769,1.966-3.276c2.359-4.062,5.045-8.583,8.321-12.187
		c0.524,0,0-0.458,0.524-0.458c1.441-0.983,2.424-2.49,4.259-3.604V6.61c0.983,0,1.376-1.048,1.835-1.573
		c0.524-0.065,0.982-0.589,0.982-0.589c1.507-0.524,2.687-0.59,3.342-1.507c1.114,1.507,2.097,0.983,3.08,2.49
		c-0.131,0.393-0.197,0.786-0.131,1.179c0.394,0.59,0.787,1.704,1.245,2.162c0.458,1.441-0.983,2.49-0.458,3.473
		c-0.524,0.983-1.507,2.424-1.966,3.407c-1.769,2.687-2.162,3.407-3.669,5.438c-1.507,0.459-1.507,1.769-2.817,2.293
		c0,0.458-1.442,1.311-1.442,2.293c-1.9,2.097-3.407,4.39-4.193,5.045c-0.982,0.524-1.638,0.983-2.031,1.966l-0.59,0.393
		c-0.458,0.982-1.441,0.786-1.966,1.769c-0.917,0.393-1.9,1.572-2.883,2.162c-1.769,1.179-3.866,2.817-6.093,3.997
		c-0.852,1.704-1.9,3.211-2.556,5.176c-0.458,0.983-0.983,1.966-0.983,2.49c-0.458,0.459-0.982,1.441-0.982,2.424
		c-0.459-0.458-1.18,3.145-1.18,3.669c0.459-0.524,2.687-3.473,3.21-3.997c0.983-0.982,1.442-2.621,2.883-3.079
		c0.524-0.524,1.507-1.507,1.965-1.507c0.983,0,2.817,0.983,3.276,1.507c0,0.458,0.917,1.965,0.917,2.948
		c0,0.786-0.262,1.376-0.589,2.097v0.328c-0.328,0.393-0.459,0.721-0.655,1.114c-0.131,0.262-0.197,0.524-0.262,0.852h-0.065v0.524
		l-0.458,0.458c0,0.524,0,0.524-0.524,0.524c0,0.458,0,1.441-0.458,1.965c0,0.459-0.524,0.459-0.524,1.442
		c-0.983,0-0.458,1.507-1.441,1.507c-0.524,1.441-1.507,2.424-1.966,3.407c-0.982,0.524-0.982,1.965-1.507,2.49
		c0,0.458,0.524,0.458,0,0.458c0,1.507-0.983,2.49-0.458,3.472c0,0,0.458,0,0.458,0.459c0.983,0,1.507,0.524,2.949,0
		c1.507-0.459,2.948-1.966,3.473-3.407c0.458-0.982,0.982-1.507,1.441-2.948c0.524,1.966-0.459,3.932-0.983,5.373
		c-1.441,0.523-1.966,1.507-3.931,1.507c0,0.459-0.459,0.459-0.983,0.982c-0.459-0.523-1.441,0-1.966-0.523
		c-1.441,0-3.08-1.966-3.604-3.407c0-1.507,0.524-3.932,1.507-5.438c1.048-2.162,2.097-4.128,3.407-5.897
		c0.721-1.376,1.376-2.817,2.293-4.259c0.197-0.524,0.394-1.048,0.394-1.638c0.524-0.458,0.655-1.441,0.655-1.966
		c0.524-0.458-0.393-1.441-0.393-1.965c-0.458,0-0.983,0.524-1.441,0.983c-0.524,0.524-0.524,0.982-0.983,0.982
		c0,0.524-0.524,0.524-0.524,0.983c-0.458,0.524-0.458,0.524-0.458,0.983h-0.983c0,0.524-0.524,0.983-0.983,1.507
		c0,0.459-0.524,0.459-0.524,0.983l-1.441,1.441c-0.524,0.983-0.982,1.507-0.982,1.966c-1.507,0.983-2.49,3.473-3.932,5.438
		c-0.524,0.459-0.983,0.459-0.983,1.442c-0.982,0-0.982,1.507-1.965,0.982c0.458-0.982,0.458-1.441,0-2.424
		c1.441-1.507,0.983-4.455,2.424-5.896c0.196-0.328,0.393-0.787,0.524-1.245c-0.786,0.786-1.572,1.704-1.572,1.966
		c-0.983,0.393-2.097,2.293-3.08,2.883c0.065,0.983-0.983,0.458-0.983,1.376V62.565z M21.295,43.761
		c-0.065,0.065-0.196,0.131-0.262,0.131c-0.917,0.393-3.145,1.507-4.128,1.834c-1.704,0.59-3.669,1.179-5.373,1.376
		c-0.852,0.131-1.769,0.131-2.293,0.328c0,0.589-0.983,1.769-1.311,2.752c-0.328,1.179-0.983,2.49-1.507,3.014
		c0,0.459-0.852,1.507-0.852,2.031c-0.917,0.917-1.442,1.966-1.442,3.473c0,0.393-0.852,0.917-1.245,1.441
		c0,0.524,0.393,1.048,0.393,1.048c0,0.458-0.393,0.458-0.393,0.983c0,0.917,0.065,1.441,0.065,2.49
		c2.49,0.852,5.307-1.572,7.273-3.014c1.311-1.375,4.783-4.259,6.486-6.29l0.59-1.769c0.458-0.982,0.458-1.507,0.983-2.49
		c0,0,0-0.458,0.458-0.458c0-0.983,0.524-1.966,0.524-2.948c0.458,0,0.983-0.524,0.983-0.983c0.458,0,0.458-0.655,0.458-1.114
		C20.902,45.071,21.099,44.481,21.295,43.761z M36.758,29.87c0.917-1.048,2.228-2.097,2.883-3.341
		c1.311-1.966,3.866-3.669,4.849-5.635c1.376-0.983,0.524-0.786,1.507-2.293c0.393-0.983,2.031-2.097,2.49-3.538
		c1.835-1.966,3.669-3.8,4.062-7.273l0.065-0.328c-0.328-0.655-0.655-1.31-0.917-1.31c-0.983,0.458-1.9,1.114-1.835,2.097h-0.983
		L47.438,9.69c0,0,0,0.524-0.524,0.524V9.69c-0.983,1.114-1.638,1.769-2.621,2.752c-0.524,0.982-1.572,1.638-2.424,2.751
		c-0.458,0.983-1.441,1.966-1.965,2.949c-0.852,0.983-1.835,1.572-2.293,2.555c-0.524,0.524-0.983,1.507-1.376,2.49
		c-0.458,0.459-0.983,0.983-1.441,1.573c-1.376,2.49-2.424,4.652-3.8,6.749c-0.458,1.441-1.311,2.949-1.834,3.931
		c-0.983,1.442-1.311,3.08-2.293,4.062c0,0.065-0.065,0.065-0.065,0.065c2.621-2.162,4.325-4.324,6.028-5.569
		C33.679,32.753,35.055,31.836,36.758,29.87z"/>
	<path display="inline" fill="#676767" d="M50.257,57.389c-0.458,0.524-1.376,1.048-1.834,1.573c0,1.441-0.983,1.965-0.983,2.948
		c-0.982,0.459-0.982,0.983-1.965,1.441c-1.507,0.983-2.949,1.507-4.456,2.49c-0.983,0-1.441,0-2.424-0.524
		c-0.983-0.458-1.507-0.458-1.966-1.441c-0.982-0.524-2.228-0.983-2.686-1.966c-1.966-7.404,4.783-13.039,7.731-16.97
		c1.507-0.983,3.014-1.966,3.473-2.424c1.507,0.458,2.49,0.983,3.931,1.441c0.983,1.965-0.655,5.176-1.638,6.618v0.983
		c-0.524,0.524-0.982,0.982-1.507,1.965c-0.983,0-1.966,0.983-2.948,1.507c-0.983-0.524-1.966-1.507-3.407-1.507
		c-0.524,0-0.983,0.983-0.983,1.507c-0.524,0.983-1.507,3.932-1.507,5.373c0,0.983,0.524,1.966,0.983,2.948
		c2.948-0.458,6.683-2.424,8.648-4.39l2.949-2.949l0.458-0.524c0.983-0.983,1.966-2.424,2.948-3.407
		C52.616,53.523,50.257,55.424,50.257,57.389z M39.577,52.541c2.424,0,3.407-1.441,4.914-2.424c0.458-0.524,0.983-0.524,0.983-0.982
		c0-0.524,0,0,0.458-0.524c0.524-0.458,1.704-2.359,1.179-3.866c-0.458,0-0.458-0.458-0.982-0.458
		C43.705,46.25,41.019,49.592,39.577,52.541z"/>
	<path display="inline" fill="#676767" d="M42.854,72.787c-1.507,1.507-3.473,0.982-4.456,2.489h-0.982
		c0,0.394-0.393,0.852-0.459,0.524c-0.065,0.524-0.524,0.917-0.524,1.441c-1.966,0.982-2.949,3.407-4.39,5.373v0.523
		c0,0.983-0.524,1.442-0.524,2.425c-0.458,0.982,0,1.966,0,2.489c0,0.983,0.524,1.442,0.524,1.966c0.459,0,0,0.459,0.459,0.983
		c0.328,0.327,0.196,0.655,0.524,0.982c0,0.459,0.983,0.459,1.441,0.983c0.524,0.458,0.524,0.982,0.983,1.441l0.983,0.982h0.983
		c0,0.459-0.262,0.524-0.065,0.524c-0.262,0.065,0.065,0.458-0.394,0.458c-0.524,0-0.982-0.982-1.965-0.458
		c-0.983-0.983-2.49-0.983-3.473-1.966c-1.441-0.982-2.424-2.49-2.949-3.932c-0.982-1.966-0.982-4.455,0-6.88l2.949-4.455
		c0.983-0.459,1.507-1.441,1.965-1.966h0.524c0.458-0.458,0.983-1.441,1.966-1.441l-0.524-0.524c0.524,0,0.524,0,0.983-0.982
		c0.524,0.524,0.983,0,0.983,0h0.524c0.983-0.459,1.966-0.982,2.424-1.441c0.524,0,0.983,0,1.507-0.524
		c0.983,0,2.49-0.59,3.932-0.982c1.834-0.459,6.355-1.966,7.862-1.966c0.983-0.459,1.441,0,2.424-0.459c0.524,0,1.507-0.524,2.49,0
		c0.983,0,1.441-0.524,2.424-0.524c0.524,0,0.983,0.524,0.983,0c1.507,0.524,4.456-0.458,5.897,0.524
		c0.524-1.507,1.507-2.948,1.965-4.455c0.983-1.441,1.507-2.948,1.966-4.39c0.524-0.524,0.983-0.982,0.983-1.965
		c0.524-0.524,0.983-0.983,0.983-1.966c-0.459,0-0.983,0.983-0.983,1.441c-0.983,0.524-1.441,0.983-0.983,1.966
		c-0.458,0-0.458,0.524-0.983,0.524c-0.458,0-0.458,0.459-0.983,0.983H69.39c-0.524,0.459-0.524,1.441-1.507,1.441
		c-0.458,0-0.458,0-0.458,0.524c-1.507,0.458-2.49,1.441-3.932,1.966c-1.507-0.524-2.49-1.507-2.49-3.473
		c0-1.507,2.752-5.701,3.931-7.338c0.524-1.507,1.507-1.966,2.49-2.949c1.441-1.507,2.948-2.49,5.373-3.473
		c1.507-0.983,2.948-0.983,4.914-1.441c0.524,0,0.524,0.458,0.524,0.458l2.949-4.39c0.458-0.524,0.458-1.507,0.983-1.966
		c0.983,0,0.983,0.983,1.441,1.966c0,0-0.458,0.458-0.458,0.983c-0.524,1.441-0.524,2.424-1.507,3.407
		c0,0.524-0.458,0.524-0.458,0.983v0.983c-0.524,0.524-0.983,0.983-0.983,1.507c-0.524,0.983-0.983,2.424-1.507,3.932
		c-0.459,0.458-0.983,1.441-1.441,1.965c-0.524,0.983-0.524,1.966-1.507,2.424c-0.458,1.966-1.965,3.931-2.948,5.897v0.524h-0.458
		c-0.524,0.458-0.524,1.441-0.983,1.965c-0.524,0.983-0.983,1.441-1.507,2.424c0.983,0,1.966,0.524,2.949,0.982
		c0.524,0,1.507,0.524,1.966,0.983c0.982,0,1.507,0.524,2.49,1.507c-0.524,0-1.507-0.524-1.507-0.982h-1.441
		c-0.065,0-0.524-0.132-0.524-0.524c0,0-0.459,0-0.983-0.459c-0.983-0.524-1.441-0.982-2.949-0.982
		c-1.441,2.948-2.948,4.914-4.39,7.862c0,0,0,0.459-0.524,0.459c-0.982,1.965-2.424,3.931-3.407,6.421c0,0,0,0.459-0.524,0.459
		c-0.458,2.489-1.965,4.455-2.948,6.421c-0.459,0-0.983,0.458-0.983,0.458c0,0.524-0.458,0.524-0.458,0.983
		c-0.983,0.524-0.983,1.507-1.966,1.507c-0.524,1.441-2.49,0.982-2.49,2.424c-0.983-0.458-0.983,0.524-1.441,0l-0.983,0.983
		c0,0,0-0.459-0.524-0.459c-0.458,0-0.458,0.459-0.982,0.459c0,0,0-0.459-0.459,0c-0.524,0-0.524,0.524-0.983,0.524h-3.931
		c-0.524,0-0.524-0.524-0.983-0.524c-0.524,0-0.982,0.524-1.507,0.524c-0.458,0-0.458-0.524-0.458-0.983
		c-0.983,0-1.966,0-2.49-0.982c2.49,0.458,4.455,0,6.421,0c1.441-0.524,2.948-0.983,3.931-1.507
		c1.441-0.459,2.424-1.441,3.407-1.966c1.507-1.441,2.949-1.966,3.931-3.407c0.983-0.983,1.966-2.49,2.949-3.473
		c0,0-0.459-0.459,0-0.459h0.524l1.441-2.948c0.983-0.982,1.966-2.49,2.949-3.932c0.524-1.507,1.507-2.948,2.49-3.931
		c0-0.459-0.328-0.524-0.458-0.524c0.458-0.131,0.917-1.507,0.917-1.966l1.507-2.948c-1.507,0.524-3.473,0.524-4.456,0
		c-0.458,0.524-2.424,0.524-3.407,0c-0.983,0.982-2.948,0.524-4.456,0.524c-0.458,0.982-1.965,0.458-2.948,0.458
		c-0.458,0.524-0.983,0.524-1.441,0.524c-0.983,0.459-1.966,0-2.49,0.459C47.244,71.346,43.837,72.787,42.854,72.787z M73.78,48.74
		c-0.459,0.459-0.983,1.442-1.966,1.966v0.983c-1.966,0.983-2.424,2.424-3.931,3.407c0,0.524-0.458,0.983-0.983,1.507
		c-0.983,0.983-1.441,2.424-2.424,3.931c0,0.983-0.983,0.983-0.983,1.966c6.88-2.949,11.27-8.387,14.218-15.267
		c-0.983,0-1.441,1.507-2.424,0.524C74.763,48.216,74.763,48.74,73.78,48.74z"/>
	<path display="inline" fill="#676767" d="M89.113,43.695c1.507,2.097,0.458,5.242-0.328,7.273c0.786-0.983,2.228-3.604,3.473-5.176
		c0.655-0.852,1.048-1.048,1.638-2.097c0.459-0.458,0.852-1.507,1.376-1.507c1.048,0,2.949,1.048,4.456,1.048
		c0.197,1.441-0.196,3.014,0.065,4.521c-1.048,1.048-1.507,1.572-2.555,3.145c-0.983,0-1.507,0-2.031,0.458
		c1.048-1.507,1.9-4.259,2.162-6.814c-0.982,0-1.9,1.376-2.948,1.835c0,0-0.524,0-0.786,0.589c-1.507,1.311-1.835,2.097-2.49,2.752
		c-0.131,0.524-1.114,2.031-1.507,2.424c-0.262,0.459-0.524,0.459-1.048,0.983c-0.786,1.507-0.458,0.983-1.245,2.097
		c-0.262,0.59-0.524,1.048-1.048,1.507c-0.262,1.048-0.262,0.721-0.524,1.769c-0.393,0.524-0.328,0.721-0.786,1.245
		c-0.786,2.097-2.228,3.08-2.359,5.635c-0.524,0-0.524,0.59-1.507,0.59c-0.524-0.59-0.983-1.245-0.983-1.834
		c-0.524-1.507,0.917-2.49,1.179-4.128c1.048-1.507,1.573-3.604,2.556-5.635c0.721-1.638,1.245-2.424,1.834-4.456
		c0.393-1.048,0.852-2.752,0.59-4.783v-1.048c0-1.048-0.721-1.572-1.311-2.097C86.034,42.516,87.803,42.712,89.113,43.695z"/>
	<path display="inline" fill="#676767" d="M117.419,41.336c-0.524,0.983-0.197,0.721-0.721,1.704c0.524,0.459,1.442,0.917,1.9,0.459
		c0,0.458,0.458,0.458,0.458,0.982c-1.441,0.393-2.359-0.196-3.276,0.328c-1.18,2.621-2.817,5.242-3.735,7.142
		c-0.786,1.572-0.983,1.769-1.376,2.752c-0.721,1.965-0.983,1.9-1.441,3.734c0,0.524-0.393,1.376-0.393,1.376
		c0,1.441-0.59,2.817-0.131,4.718c1.114,0.589,2.883-1.573,3.604-2.228c0.983-1.376,2.687-1.834,3.21-2.817
		c3.014-2.555,4.586-4.324,6.618-7.469c0,0.917-0.655,0.983-0.655,1.9c-0.524,0.983-1.507,1.245-1.507,2.687
		c-0.458,0.458-0.852,0.59-0.852,1.048c-0.917,1.245-1.048,0.721-1.769,1.572c0,0.394-0.328,0.197-0.328,0.721
		c-0.917,1.375-1.441,3.014-2.883,3.407v0.983c-1.376,0.458-1.572,1.573-2.948,2.031c0,0,0-0.458-0.459-0.458
		c-0.982,0.458-1.376-0.459-2.358-0.459l-0.917-0.982c-0.458-0.394-0.524-0.394-0.524-0.394c-0.917-1.441-0.262-4.455,0.262-6.29
		c-1.311,2.424-2.162,3.473-3.08,4.849c-0.458,0.524-1.441,1.441-1.834,1.835c-0.983,0-1.441,0.982-1.9,0.982
		c-0.917,0-1.834,0.459-2.817,0c-0.917-0.458-1.376-1.376-2.293-1.9c-0.524-3.21,1.376-6.552,3.21-8.845
		c0.524-0.459,0.524-0.917,0.983-1.442c1.441-1.441,2.49-2.686,4.652-4.652c0.459,0,1.376-0.917,1.9-1.376
		c0.917-0.458,1.376-0.917,2.293-1.441c0.459,0,0.459-0.131,0.917-0.655c0.524,0,0.917-0.262,0.917-0.262
		c1.441-0.393,3.276-1.375,4.193-1.375c0.655-0.59,0.721-0.721,0.983-1.245c0.393-0.458,1.31-1.966,2.228-1.966
		C117.091,40.812,116.895,40.878,117.419,41.336z M104.249,52.082l-1.507,2.293l-2.097,3.014c-0.524,0.721-0.917,1.769-1.311,2.293
		c-0.524,0.786-0.655,1.572-0.786,1.704c0,0.524-1.18,1.834-0.852,2.424c0.917,0,2.097-0.59,2.949-1.18
		c1.048-0.721,1.769-1.114,2.621-2.031c0.458-0.524,1.769-1.31,1.769-1.834c0.393,0,0.59-0.655,1.376-1.704
		c0.655-0.917,1.507-2.228,2.162-3.8c0.459-0.524,0.459-0.982,0.917-1.834c0.458-0.917,3.407-5.373,3.8-6.29
		c-0.983,0.197-3.342,1.704-4.652,2.817C106.936,49.396,105.756,50.248,104.249,52.082z"/>
	<path display="inline" fill="#676767" d="M139.827,30.198c0.983-1.441,1.114-1.9,2.097-3.866c0.459-0.458,0.394-1.441,0.852-2.555
		c0.524-0.524,1.572-1.704,2.031-2.687v0.197c1.441-2.031,2.686-4.456,4.193-6.421c2.097-2.817,4.259-4.914,6.684-7.535
		c0.852-0.524,1.703-1.311,2.621-2.293c1.507-0.524,2.489-1.703,4.455-1.834c0.328-0.458,0.982-0.065,0.852-0.524
		c0.59,0.983,0.59,1.965,1.573,2.162c-0.132,1.965,0.852,2.948,0.523,4.914c-0.59-0.458-0.655-0.983-1.179-1.769
		c-1.966,0.131-3.801,1.9-5.569,2.948c-0.983,0.983-2.949,1.769-3.735,3.276c-1.834,0.328-2.293,2.752-3.473,4.259h-0.458
		c-0.524,0.458-0.983,1.441-1.507,2.752c-1.311,1.965-3.08,3.931-3.932,6.552c0,0.459-0.524,0.459-0.524,0.983
		c-1.834,2.424-2.228,4.652-4.062,7.601c-0.983,1.507-0.852,1.966-1.835,3.407c0,0.524-0.917,1.9-0.917,2.359
		c-0.524,1.507-0.328,1.376-1.311,3.341c-0.983,1.441-1.769,4.193-2.752,6.618v-0.458c-0.458,0.983-0.983,1.441-0.983,2.424
		c-0.458,0.982-0.458,1.965-0.458,2.948c-0.524,0.524-0.983,0.524-0.983,0.983v1.507c-0.524,0.459-0.524,0.459-0.524,0.983v0.983
		c-0.459,0.983-0.983,2.424-0.983,2.948c0,0.983,0.458,1.114,0.458,2.097c1.441,0.459,3.604-0.196,4.586-1.179
		c0.983-0.983,2.162-1.834,3.407-3.276c1.179-1.507,1.966-3.145,2.424-4.128c0,2.948-3.473,6.486-4.456,8.911
		c-0.524,0-0.524,0-0.524,0.524c-0.459,0-0.459,0.458-0.459,0.982c-0.524,0-0.982,0.459-1.507,0.983
		c-0.983,0-1.441,0.458-2.424,0.458h-0.524l-2.424-2.424v-1.966c0-2.49,0.458-5.373,1.245-7.862c0-0.524,0.59-2.556,0.59-2.556
		c0.458-0.982,0.262-1.638,0.721-2.621c-0.458,0.524-1.376,1.834-1.9,3.014c-0.459,1.048-0.655,1.18-1.18,2.163
		c-0.983,0.982-1.441,1.965-2.424,2.948v1.441c-0.983,0.983-1.965,1.507-2.948,2.49c-0.983-0.524-1.507-0.524-2.49,0
		c0-0.524-0.983-0.524-1.441-0.983c0-0.982-0.524-0.982-1.507-1.507c-0.328-0.917-0.393-1.769-0.458-2.359
		c-0.065-0.589,0.262-1.965,0.262-1.965l0.721-1.311l0.458-0.721V55.03c0,0,0.983-0.458,0.524-0.982
		c0.458,0,0.458-0.459,0.982-0.459c0.459-1.507,1.442-2.49,1.966-3.473c0.983-0.982,1.966-2.424,2.948-2.948
		c1.442-1.441,2.949-1.966,4.39-3.407c0.983-0.524,1.966-0.524,2.49-1.507c1.441,0.262,1.507,0.196,2.424,0.983
		c1.573-3.735,1.9-3.997,3.407-8.387C138.648,34.457,139.369,31.312,139.827,30.198z M130.065,45.727
		c-0.983,0.983-2.49,1.966-2.49,3.407c-0.458,0.524-0.458,0.982-1.441,1.507c0,0.983-0.983,1.441-1.507,2.424
		c-0.458,0.524-0.458,0.983-0.983,1.507c0,0.458-0.458,0.983-0.458,1.441c-0.983,1.966-1.966,3.473-2.49,5.438
		c3.931-1.507,6.879-5.438,8.845-8.845c0.524-0.524,0.983-1.507,1.507-1.966c0.459-0.524,0.983-1.507,1.442-2.49
		c0.524-1.441,1.572-2.817,1.703-4.39c-0.655,0-1.245,0.459-1.703,0.459C132.03,44.744,131.047,45.202,130.065,45.727z"/>
	<path display="inline" fill="#676767" d="M144.938,53.589c-0.524,0.59-1.572,1.704-1.572,2.752
		c-1.114,1.573-1.441,5.111-2.555,7.273c1.638,0,2.883-1.441,4.521-2.031c0.523-1.572,2.031-1.965,3.604-4.193
		c1.376-2.555,1.376-3.341,2.424-4.914c0.524-1.048,1.18-2.097,1.704-2.621c0.524-1.048,1.113-2.752,2.162-3.211
		c0-1.114,0.524-1.703,0.524-2.162c0-0.589-0.524-0.589,0-1.114c0.59,0,1.638,1.573,1.638,2.162c0,0.524-0.524,0.524-0.524,1.114
		v0.459l-0.262,0.59c0,0.589-0.262,0.524-0.262,1.114c-0.59,0.458-1.114,1.048-1.114,1.572c-0.524,0.59-0.524,1.638-1.049,2.162
		c-0.589,1.048-1.638,2.752-1.638,3.8c-0.524,0.524,0,1.114-0.524,1.114v1.048c-0.458,1.376-0.917,2.293-1.113,3.735
		c-0.263,1.704-0.524,3.866,1.113,4.914c0.918,0.524,1.639,0.852,2.752,0.852v0.131c0,0.065,0,0.065-0.065,0.131h-2.162
		c-1.114,0-2.162-1.114-3.276-1.114c-1.572-1.638-1.048-5.373,0-7.535c-0.523,0-1.048,0.458-1.572,1.572
		c0,0.59-0.59,0.59-1.113,1.638l-0.524,0.524c-0.524,0.59-1.638,0.59-2.163,1.638c-1.638,1.573-4.848,0.524-5.962-1.638
		c0.524-3.734,2.162-5.897,3.276-9.173c1.048-1.638,1.376-3.276,2.49-5.373c0.917-1.769,1.638-3.866,1.638-6.028
		c0-0.524-0.263-0.655-0.328-0.655c1.049,0.065,2.687,1.769,3.211,2.358C147.69,48.216,146.053,50.378,144.938,53.589z"/>
	<path display="inline" fill="#676767" d="M176.979,41.336c-0.524,0.983-0.197,0.721-0.721,1.704
		c0.523,0.459,1.441,0.917,1.899,0.459c0,0.458,0.459,0.458,0.459,0.982c-1.441,0.393-2.358-0.196-3.276,0.328
		c-1.179,2.621-2.817,5.242-3.734,7.142c-0.786,1.572-0.982,1.769-1.376,2.752c-0.721,1.965-0.982,1.9-1.441,3.734
		c0,0.524-0.394,1.376-0.394,1.376c0,1.441-0.589,2.817-0.131,4.718c1.114,0.589,2.883-1.573,3.604-2.228
		c0.983-1.376,2.687-1.834,3.211-2.817c3.014-2.555,4.587-4.324,6.617-7.469c0,0.917-0.654,0.983-0.654,1.9
		c-0.524,0.983-1.508,1.245-1.508,2.687c-0.458,0.458-0.852,0.59-0.852,1.048c-0.917,1.245-1.048,0.721-1.769,1.572
		c0,0.394-0.328,0.197-0.328,0.721c-0.917,1.375-1.441,3.014-2.883,3.407v0.983c-1.376,0.458-1.572,1.573-2.948,2.031
		c0,0,0-0.458-0.459-0.458c-0.982,0.458-1.376-0.459-2.358-0.459l-0.917-0.982c-0.459-0.394-0.524-0.394-0.524-0.394
		c-0.918-1.441-0.263-4.455,0.262-6.29c-1.311,2.424-2.162,3.473-3.079,4.849c-0.459,0.524-1.441,1.441-1.835,1.835
		c-0.982,0-1.441,0.982-1.9,0.982c-0.917,0-1.834,0.459-2.817,0c-0.917-0.458-1.376-1.376-2.293-1.9
		c-0.524-3.21,1.376-6.552,3.211-8.845c0.523-0.459,0.523-0.917,0.982-1.442c1.441-1.441,2.49-2.686,4.652-4.652
		c0.458,0,1.376-0.917,1.899-1.376c0.918-0.458,1.376-0.917,2.294-1.441c0.458,0,0.458-0.131,0.917-0.655
		c0.524,0,0.917-0.262,0.917-0.262c1.441-0.393,3.276-1.375,4.193-1.375c0.655-0.59,0.721-0.721,0.983-1.245
		c0.393-0.458,1.311-1.966,2.228-1.966C176.65,40.812,176.454,40.878,176.979,41.336z M163.809,52.082l-1.507,2.293l-2.097,3.014
		c-0.524,0.721-0.918,1.769-1.311,2.293c-0.524,0.786-0.655,1.572-0.786,1.704c0,0.524-1.18,1.834-0.852,2.424
		c0.917,0,2.097-0.59,2.948-1.18c1.048-0.721,1.769-1.114,2.621-2.031c0.458-0.524,1.769-1.31,1.769-1.834
		c0.394,0,0.59-0.655,1.376-1.704c0.655-0.917,1.507-2.228,2.162-3.8c0.459-0.524,0.459-0.982,0.917-1.834
		c0.459-0.917,3.407-5.373,3.801-6.29c-0.983,0.197-3.342,1.704-4.652,2.817C166.495,49.396,165.315,50.248,163.809,52.082z"/>
	<path display="inline" fill="#676767" d="M188.772,62.042c1.507-1.507,3.079-3.08,4.587-5.111c0-0.524,1.048-1.048,1.048-2.097
		c0.524,1.048-1.048,1.572-0.459,2.621c-0.589,0.459-1.572,1.048-1.572,1.507c-1.048,0.524-1.048,2.097-2.097,2.621
		c0,1.048-1.048,0.459-1.048,1.507c-0.459,0.524-0.983,0.524-0.983,1.048c-1.048,0.524-1.572,1.048-2.555,1.572
		c0,1.048-1.049,0.458-1.049,1.507c-1.048-0.458-1.572,0-2.621-0.458c-2.031-0.59-3.145-1.572-3.669-3.145
		c0-0.524-0.458-0.983,0-1.572c0-0.983,0-2.031,0.524-3.08v-1.507c0.524-1.572,1.572-3.669,2.097-4.652
		c0.459-1.572,0.459-2.555,1.507-3.604v-1.048c2.097-3.604,2.883-7.208,4.914-10.876c0.524-0.983,1.049-2.556,1.507-3.538
		c0.59-1.048,1.049-1.573,1.573-2.097c0.523-1.573,1.572-3.08,2.096-4.652c0.459-0.524,0.722-1.311,1.18-1.769
		c1.049-1.572,1.572-3.145,2.621-4.717c0.459-1.507,1.507-2.556,2.031-4.128c0.524,0,0.524-0.458,0.524-0.458
		c1.048-2.097,2.03-3.669,3.079-5.176c0.524-1.048,2.424-2.359,3.407-3.866c2.097-2.031,3.997-5.176,8.124-5.701
		c0.459,0,0,1.048,0.459,1.573c0,0.524,1.049,1.048,1.572,1.507V5.3c0.524,0.524,1.049,1.048,0.524,2.097
		c-1.048,0-1.048-1.048-1.507-1.572c-0.59,0-0.59,0.524-1.049,0.524h-1.048c-0.524,0-0.524,0.524-1.048,0.524
		c0,0.524-0.524,0.524-0.983,0.524c-0.59,0.524-0.59,0.983-1.048,2.031c-0.524,0-1.573,0.524-1.573,1.048
		c-1.048,1.048-1.507,2.031-2.097,2.621c0,0.459-0.458,0.459-0.458,0.459c-1.573,2.621-3.08,6.225-5.7,8.255
		c-0.524,2.097-2.097,4.128-3.08,6.225c-1.048,2.031-2.097,3.604-3.604,6.159c0,0.524-0.524,1.048-1.049,2.097
		c-0.654,0.131-0.721,1.704-1.048,2.031c-2.031,3.669-3.604,7.797-5.7,11.335c0,0.59-0.459,1.048-0.459,1.573
		c-0.524,0.524,0,1.572-0.524,2.097c0,0.458-1.048,1.507-1.048,2.031c-0.524,1.048-1.049,2.097-1.049,3.604
		c0,0.524-0.458,1.048-1.048,1.572c0,0.524,0.59,1.048,0.59,1.048c0,0.459-0.59,0.459-0.59,1.048c0,0.983,0.59,1.507,0.59,2.556
		C184.12,66.169,186.676,63.614,188.772,62.042z"/>
	<path display="inline" fill="#676767" d="M203.253,62.172c1.245,2.162,4.128,4.324,6.684,2.687
		c1.572-1.114,2.424-3.276,2.424-5.897c-0.196-2.752-2.555-6.028-2.162-9.239c0-1.114,0.524-1.572,0.918-2.686
		c1.572-0.59,1.507-2.228,2.555-2.752c0-0.59,1.77-0.459,2.031-1.048c1.114-0.524,1.704-0.524,2.162,0
		c1.311,0.589,1.311,0.589,1.9,1.048c1.049,1.114,0.459,0.589,1.049,1.704c0,0.196,0.065,0.982,0.196,1.572
		c0,0.59,0,1.638-0.59,2.162c-1.049,0.59-1.572,1.048-2.621,1.048c0-0.458,0.197,0-0.393-0.589c1.638-0.524,2.293-4.914,0.721-6.028
		c-1.704,0.524-2.294,2.163-3.211,4.325l-0.393,0.131c0,1.114-1.049,1.704-0.394,3.276v1.638c0.786,2.162,2.358,4.849,1.507,7.601
		l-1.113,1.048c0.196,0.524,0.196,0.524,0.196,1.114c-0.459,0-0.459,0.458-1.049,0.458c-0.523,0.59-1.113,1.704-1.572,1.704
		c-0.59,0.459-0.59,0.459-1.114,0.459c-0.589,0-1.441,0.589-2.555,0.589c-0.459,0.524-1.572,0-2.162,0c-0.459,0-0.655-0.589-1.572,0
		c-0.787-1.638-1.835-2.162-1.835-3.21c-0.721-2.162,0.393-4.324,1.245-6.028c0-0.458,0.523-1.048,0.523-1.048h0.59
		c0,0,0.721-0.328,1.245-0.786c-0.982,0.917-1.9,1.572-2.358,2.948C203.712,58.962,202.664,61.124,203.253,62.172z"/>
	<path display="inline" fill="#676767" d="M231.362,62.565c-0.459,0.524-0.982,0.524-1.376,1.048
		c-0.917,0.524-1.441,1.048-2.424,1.573c0,0.917-0.918,0.327-0.918,1.376c-1.048-0.459-1.572,0-2.62-0.459
		c-1.573-0.59-2.621-1.441-2.752-3.014c0-0.524-0.328-0.917,0-1.442c0-0.982,0-2.031,0.917-2.948v-1.507
		c0.917-1.441,1.572-3.538,2.097-4.521c0.786-1.441,1.114-2.49,1.638-3.604c0,0,0.459-1.048,0.721-1.703
		c-0.852,0-1.244-0.131-1.769-0.197c-1.966-0.458-2.425-1.834-2.031-4.324c0.655,0.065,0.59,0.655,0.917,0.852
		c1.245,0.983,1.376,1.114,3.801,1.114c0.393-0.524,0.917-1.507,0.393-1.965c0.983-0.524,0.983-1.966,1.9-2.949
		c0.459-1.965,1.703-3.341,1.245-5.832c0.393-1.441-0.459-2.686-0.983-3.669c0.131-0.197-0.131-0.262,0.394-0.262
		c0.458,0,0.458,0.197,0.982,0.655l0.459,0.328c0,0,0,0.983,0.524,0.524c0.982,0.982,2.031,2.424,2.031,4.39
		c0,0.983-0.721,1.9-1.245,3.342c-0.852,1.507-1.77,3.8-2.162,5.242c0.458,0,1.769,0.065,2.293,0
		c1.769-0.262,3.669-0.393,4.062-0.983c-0.065,0.065,2.031-0.262,2.489-0.262c-1.441,0.983-2.686,2.359-3.996,2.817
		c-0.983-0.196-2.162,0.59-2.621,0.59c-0.917,0.524-2.621,0.328-3.407,0.655c0,0.589-0.982,1.769-1.311,2.752
		c-0.327,1.179-0.982,2.49-1.507,3.014c0,0.459-0.852,1.507-0.852,2.031c-0.918,0.917-1.441,1.966-1.441,3.473
		c0,0.393-0.853,0.917-1.245,1.441c0,0.524,0.393,1.048,0.393,1.048c0,0.458-0.393,0.458-0.393,0.983
		c0,0.917,0.065,1.441,0.065,2.49c2.49,0.852,5.308-1.572,7.272-3.014c1.441-1.572,3.211-3.079,4.652-5.176
		c0-0.524,1.376-0.917,1.376-1.966c0.394,0.983-1.376,1.441-0.786,2.49c-0.59,0.458-1.507,1.114-1.507,1.573
		c-0.983,0.393-1.311,1.965-2.294,2.555c0.066,0.983-0.982,0.458-0.982,1.376V62.565z"/>
	<path display="inline" fill="#676767" d="M268.578,57.389c-0.459,0.524-1.376,1.048-1.835,1.573c0,1.441-0.982,1.965-0.982,2.948
		c-0.983,0.459-0.983,0.983-1.966,1.441c-1.507,0.983-2.948,1.507-4.455,2.49c-0.983,0-1.441,0-2.425-0.524
		c-0.982-0.458-1.507-0.458-1.966-1.441c-0.982-0.524-2.228-0.983-2.686-1.966c-0.263-0.852-0.394-1.638-0.394-2.424
		c-1.18,0.917-2.228,1.769-2.883,2.424c-0.983,0.459-0.721,0.983-1.704,1.441c-1.507,0.983-2.948,1.507-4.455,2.49
		c-0.982,0-1.441,0-2.424-0.524c-0.983-0.458-1.508-0.458-1.966-1.441c-0.983-0.524-2.228-0.983-2.687-1.966
		c-1.966-7.404,4.783-13.039,7.731-16.97c1.507-0.983,3.014-1.966,3.473-2.424c1.507,0.458,2.489,0.983,3.932,1.441
		c0.982,1.965-0.655,5.176-1.639,6.618v0.983c-0.524,0.524-0.982,0.982-1.507,1.965c-0.982,0-1.966,0.983-2.948,1.507
		c-0.983-0.524-1.966-1.507-3.407-1.507c-0.524,0-0.982,0.983-0.982,1.507c-0.524,0.983-1.508,3.932-1.508,5.373
		c0,0.983,0.524,1.966,0.983,2.948c2.948-0.458,5.831-1.179,8.19-2.686c1.31-0.852,2.883-1.704,3.865-2.556
		c0.655-5.569,5.635-9.894,8.06-13.169c1.507-0.983,3.014-1.966,3.473-2.424c1.507,0.458,2.489,0.983,3.931,1.441
		c0.983,1.965-0.655,5.176-1.638,6.618v0.983c-0.524,0.524-1.704,0.982-2.228,1.965c-0.983,0-1.639,0.524-2.621,1.048
		c-2.097,1.245-3.407,1.376-4.587,2.228c-0.59,0.393-0.917,2.817-0.917,3.604c0,0.983,0.524,1.966,0.982,2.948
		c2.949-0.458,6.684-2.424,8.649-4.39l2.948-2.949l0.459-0.524c0.982-0.983,1.965-2.424,2.948-3.407
		C270.937,53.523,268.578,55.424,268.578,57.389z M241.387,52.541c2.424,0,3.407-1.441,4.914-2.424
		c0.459-0.524,0.982-0.524,0.982-0.982c0-0.524,0,0,0.459-0.524c0.524-0.458,1.703-2.359,1.18-3.866
		c-0.459,0-0.459-0.458-0.983-0.458C245.515,46.25,242.828,49.592,241.387,52.541z M256.522,55.62
		c2.424-1.376,3.8-2.752,5.372-4.259c0.459-0.524,1.9-1.769,1.9-2.228c0-0.524,0,0,0.459-0.524c0.523-0.458,1.703-2.359,1.179-3.866
		c-0.458,0-0.458-0.458-0.982-0.458C262.025,46.25,257.832,51.361,256.522,55.62z"/>
	<path display="inline" fill="#676767" d="M277.818,36.685c0.524,0,0,0.524,0.524,0.524c1.048,1.507,1.507,3.079,1.048,5.176
		c-0.524,0.459-1.048,1.048-1.048,2.031c-0.524,0.524-0.655,0.852-0.655,1.441c-0.459,0.459-1.508,2.359-1.508,2.817
		c2.097-2.097,6.29-5.831,9.436-3.21c0,0.458,0.459,1.507,0,2.097v0.983c-0.59,1.048-1.049,2.097-1.638,3.145
		c0,0.983-0.459,1.507-0.983,2.031c-0.524,0.458-0.524,1.507-1.048,2.097c-1.049,0.983-2.556,2.031-3.08,3.538
		c0,0-0.523,0-0.523,0.59c-0.983,1.507-3.08,2.49-4.128,4.127c-0.524,0-0.983,0.459-1.573,0.459c0,0.524-0.458,0.524-1.048,1.048
		c-0.459,0-1.507-0.524-2.031,0c0-0.524,0.327,0.131,0.327-0.852c1.573-0.589,3.342-2.293,4.325-3.8
		c0.523-0.524,1.048-0.982,1.507-1.572c0.59-1.048,1.638-2.031,2.621-2.555c0.523-0.983,1.048-2.031,1.507-2.621
		c0.59-0.983,0.59-2.031,1.048-2.49c1.049-2.097,2.097-3.669,2.621-5.766c-2.031,0.59-4.259,1.77-5.831,2.817
		c-0.459,0.524-0.918,0.983-1.966,2.031c-0.459,0.459-1.507,1.9-2.031,2.949v0.458c0,0.59-0.459,0.59-0.459,1.048
		c-0.59,1.573-1.048,3.08-2.097,4.718c-0.523,1.507-1.572,3.538-2.621,5.11c-0.458,1.507-1.048,3.145-1.507,4.128
		c-0.523,1.048-1.048,2.555-1.572,3.604c0,0-0.459,0.523-1.048,1.048v1.572c-0.459,0-0.459,0.459-0.459,1.049
		c-0.59,0.459-1.049,1.507-1.572,2.031c-1.18,0.786-1.77,5.766-1.77,5.962c-0.524,1.049-0.524,2.097-0.982,2.621
		c0,0.524-0.59,1.049-0.59,1.049c-0.459,1.048-0.459,2.097-0.459,2.555c-0.59,1.049-1.048,1.572-1.048,2.031
		c-0.524,2.621-0.524,4.718-1.573,7.273c-2.096,0.523-2.555-2.556-2.096-5.177c0.589-1.048,0.589-2.556,1.179-3.604
		c0-0.982,0.459-2.621,0.983-3.604c0.523,0,0-0.524,0.523-1.049c0-1.048,0.524-1.507,0.524-2.097
		c1.376-3.079,2.228-4.717,2.752-6.486c0.59-2.097,1.572-3.604,2.621-5.176c0.458-2.097,1.966-4.128,2.555-5.635
		c0.459-1.048,0.983-2.097,1.508-3.08c0-0.589,0.523-1.638,0.523-2.621c1.049-0.524,1.049-1.507,1.507-2.555
		c1.573-4.718,4.128-9.304,6.225-14.48c0.983-2.621,3.08-6.159,0.983-8.78C276.77,36.16,277.359,36.685,277.818,36.685z"/>
</g>
<g>
	<path fill="#676767" d="M12.502,62.587c-0.449,0.511-0.96,0.511-1.346,1.025c-0.895,0.511-1.406,1.022-2.366,1.534
		c0,0.898-0.898,0.321-0.898,1.347c-1.023-0.449-1.534,0-2.56-0.449c-1.535-0.577-2.559-1.409-2.687-2.946
		c0-0.511-0.321-0.895,0-1.406c0-0.96,0-1.986,0.895-2.881V57.34c0.898-1.41,1.537-3.458,2.048-4.418
		c0.77-1.406,1.088-2.432,1.602-3.52c0,0,0.446-1.023,0.702-1.665c-0.83,0-1.216-0.128-1.728-0.19
		c-1.92-0.448-2.367-1.792-1.983-4.224c0.64,0.062,0.574,0.639,0.895,0.833c1.216,0.958,1.344,1.088,3.713,1.088
		c0.383-0.514,0.895-1.475,0.383-1.92c0.96-0.515,0.96-1.92,1.855-2.881c0.449-1.92,1.665-3.264,1.216-5.695
		c0.386-1.41-0.446-2.625-0.958-3.585c0.128-0.193-0.13-0.256,0.384-0.256c0.446,0,0.446,0.19,0.96,0.639l0.446,0.321
		c0,0,0,0.96,0.514,0.511c0.96,0.96,1.983,2.37,1.983,4.29c0,0.957-0.705,1.855-1.216,3.265c-0.833,1.471-1.727,3.709-2.113,5.119
		c0.449,0,1.73,0.063,2.241,0c1.728-0.256,3.585-0.384,3.969-0.96c-0.065,0.065,1.983-0.256,2.432-0.256
		c-1.409,0.96-2.625,2.304-3.903,2.753c-0.96-0.193-2.114,0.574-2.561,0.574c-0.897,0.514-2.562,0.321-3.329,0.642
		c0,0.577-0.96,1.727-1.281,2.688c-0.318,1.153-0.96,2.432-1.472,2.943c0,0.448-0.833,1.474-0.833,1.986
		c-0.895,0.895-1.406,1.92-1.406,3.392c0,0.383-0.832,0.895-1.216,1.409c0,0.511,0.384,1.022,0.384,1.022
		c0,0.449-0.384,0.449-0.384,0.96c0,0.895,0.063,1.409,0.063,2.432c2.432,0.833,5.185-1.537,7.105-2.943
		c1.409-1.537,3.137-3.009,4.545-5.057c0-0.512,1.344-0.897,1.344-1.921c0.383,0.96-1.344,1.409-0.77,2.432
		c-0.574,0.449-1.472,1.088-1.472,1.537c-0.959,0.383-1.279,1.921-2.238,2.497c0.062,0.96-0.96,0.446-0.96,1.344V62.587z"/>
	<path fill="#676767" d="M23.254,42.107c0.895-1.475,1.344-2.881,2.176-4.418V37.24c0.511-1.022,1.343-2.943,1.792-3.903
		c0.512-0.96,0.96-1.471,0.895-2.432c0.895-1.088,1.409-2.497,1.855-3.458c0.387-0.96,1.475-1.727,1.92-3.199
		c2.304-3.969,4.929-8.386,8.131-11.906c0.511,0,0-0.449,0.511-0.449c1.407-0.96,2.367-2.432,4.159-3.52V7.925
		c0.96,0,1.344-1.022,1.792-1.534c0.511-0.065,0.96-0.577,0.96-0.577c1.472-0.511,2.625-0.577,3.264-1.472
		c1.088,1.472,2.048,0.96,3.008,2.432c-0.511,1.41,0.577,3.009,0.577,3.969c-0.449,0.128-1.537-1.986-2.048-3.264
		c-0.96,0.446-1.858,1.088-1.792,2.048h-0.96l-1.409,1.406c0,0,0,0.514-0.512,0.514v-0.514c-0.96,1.088-1.599,1.73-2.56,2.69
		c-0.511,0.96-1.537,1.599-2.369,2.688c-0.446,0.96-1.406,1.92-1.92,2.88c-0.83,0.96-1.79,1.536-2.239,2.495
		c-0.511,0.514-0.96,1.474-1.344,2.434c-0.449,0.446-0.96,0.96-1.409,1.535c-1.344,2.431-2.37,4.545-3.713,6.593
		c-0.446,1.409-1.278,2.881-1.792,3.841c-0.958,1.406-1.278,3.009-2.239,3.969c-0.833,2.366-2.304,4.031-3.136,6.528
		c-0.449,0.96-0.96,1.92-0.96,2.432c-0.449,0.449-0.96,1.407-0.96,2.367c-0.449-0.446-1.152,3.074-1.152,3.585
		c0.448-0.511,2.624-3.392,3.135-3.903c0.96-0.96,1.409-2.56,2.818-3.009c0.511-0.511,1.471-1.471,1.92-1.471
		c0.96,0,2.751,0.96,3.199,1.471c0,0.449,0.898,1.92,0.898,2.881c0,0.767-0.256,1.344-0.577,2.048v0.318
		c-0.321,0.386-0.449,0.704-0.639,1.088c-0.13,0.256-0.194,0.514-0.259,0.833h-0.062v0.512l-0.449,0.448
		c0,0.511,0,0.511-0.512,0.511c0,0.449,0,1.409-0.449,1.921c0,0.448-0.512,0.448-0.512,1.409c-0.96,0-0.448,1.472-1.409,1.472
		c-0.511,1.409-1.471,2.369-1.92,3.33c-0.96,0.511-0.96,1.92-1.471,2.432c0,0.449,0.511,0.449,0,0.449
		c0,1.471-0.96,2.432-0.446,3.392c0,0,0.446,0,0.446,0.446c0.96,0,1.471,0.511,2.88,0c1.472-0.446,2.88-1.917,3.392-3.327
		c0.449-0.96,0.96-1.471,1.409-2.88c0.512,1.92-0.449,3.841-0.96,5.25c-1.409,0.512-1.921,1.469-3.841,1.469
		c0,0.452-0.449,0.452-0.96,0.963c-0.449-0.511-1.409,0-1.92-0.511c-1.407,0-3.009-1.921-3.521-3.33
		c0-1.471,0.512-3.841,1.472-5.312c1.025-2.113,2.048-4.034,3.329-5.761c0.705-1.344,1.344-2.752,2.239-4.159
		c0.193-0.514,0.387-1.025,0.387-1.602c0.511-0.446,0.639-1.406,0.639-1.919c0.512-0.447-0.383-1.407-0.383-1.918
		c-0.449,0-0.96,0.511-1.409,0.96c-0.511,0.511-0.511,0.958-0.96,0.958c0,0.513-0.511,0.513-0.511,0.959
		c-0.449,0.514-0.449,0.514-0.449,0.96h-0.96c0,0.514-0.512,0.96-0.96,1.475c0,0.446-0.511,0.446-0.511,0.96l-1.409,1.406
		c-0.512,0.96-0.96,1.472-0.96,1.92c-1.472,0.96-2.432,3.392-3.838,5.312c-0.514,0.449-0.96,0.449-0.96,1.409
		c-0.96,0-0.96,1.471-1.92,0.96c0.446-0.96,0.446-1.409,0-2.369c1.406-1.472,0.96-4.353,2.367-5.761
		c0.514-0.96,0.96-2.432,1.474-3.838c0.446-0.96,0.446-1.475,0.958-2.435c0,0,0-0.446,0.449-0.446c0-0.96,0.512-1.92,0.512-2.881
		c0.449,0,0.96-0.511,0.96-0.959c0.448,0,0.448-0.64,0.448-1.089C22.356,44.985,22.805,43.513,23.254,42.107z"/>
	<path fill="#676767" d="M51.414,57.53c-0.449,0.514-1.343,1.026-1.792,1.537c0,1.41-0.96,1.921-0.96,2.881
		c-0.96,0.449-0.96,0.96-1.92,1.409c-1.471,0.96-2.881,1.472-4.352,2.432c-0.96,0-1.406,0-2.366-0.514
		c-0.96-0.446-1.475-0.446-1.92-1.407c-0.96-0.511-2.176-0.96-2.625-1.92c-1.92-7.233,4.674-12.738,7.554-16.576
		c1.472-0.96,2.943-1.92,3.392-2.369c1.471,0.449,2.432,0.959,3.838,1.409c0.96,1.921-0.639,5.057-1.6,6.463v0.96
		c-0.511,0.511-0.96,0.96-1.471,1.92c-0.96,0-1.92,0.96-2.881,1.472c-0.96-0.512-1.92-1.472-3.326-1.472
		c-0.515,0-0.96,0.96-0.96,1.472c-0.515,0.96-1.475,3.84-1.475,5.25c0,0.96,0.514,1.92,0.96,2.88
		c2.881-0.449,6.529-2.369,8.449-4.29l2.881-2.88l0.449-0.511c0.96-0.96,1.92-2.369,2.88-3.33
		C53.717,53.754,51.414,55.609,51.414,57.53z M40.982,52.794c2.366,0,3.326-1.409,4.797-2.368c0.449-0.513,0.96-0.513,0.96-0.958
		c0-0.515,0,0,0.449-0.515c0.511-0.446,1.665-2.304,1.153-3.775c-0.449,0-0.449-0.449-0.96-0.449
		C45.013,46.649,42.388,49.913,40.982,52.794z"/>
	<path fill="#676767" d="M44.178,72.569c-1.472,1.475-3.392,0.963-4.353,2.438h-0.959c0,0.381-0.384,0.827-0.449,0.512
		c-0.062,0.511-0.511,0.892-0.511,1.403c-1.92,0.963-2.88,3.329-4.287,5.25v0.511c0,0.964-0.514,1.409-0.514,2.372
		c-0.445,0.958,0,1.921,0,2.432c0,0.958,0.514,1.409,0.514,1.92c0.446,0,0,0.447,0.446,0.958c0.321,0.321,0.193,0.642,0.514,0.963
		c0,0.447,0.959,0.447,1.406,0.958c0.511,0.445,0.511,0.963,0.96,1.409l0.96,0.957h0.96c0,0.451-0.256,0.517-0.062,0.517
		c-0.259,0.06,0.062,0.446-0.387,0.446c-0.511,0-0.96-0.963-1.92-0.446c-0.958-0.963-2.432-0.963-3.392-1.92
		c-1.406-0.963-2.366-2.432-2.879-3.842c-0.959-1.92-0.959-4.352,0-6.724l2.879-4.353c0.96-0.445,1.475-1.408,1.921-1.92h0.513
		c0.447-0.446,0.958-1.403,1.918-1.403l-0.511-0.518c0.511,0,0.511,0,0.96-0.957c0.511,0.512,0.96,0,0.96,0h0.511
		c0.96-0.446,1.92-0.963,2.369-1.409c0.511,0,0.96,0,1.472-0.511c0.96,0,2.432-0.577,3.841-0.96c1.792-0.449,6.208-1.92,7.682-1.92
		c0.959-0.449,1.406,0,2.366-0.449c0.512,0,1.472-0.511,2.432,0c0.96,0,1.409-0.511,2.369-0.511c0.512,0,0.96,0.511,0.96,0
		c1.472,0.511,4.352-0.449,5.762,0.511c0.511-1.471,1.471-2.878,1.919-4.352c0.958-1.406,1.473-2.878,1.918-4.287
		c0.515-0.512,0.96-0.96,0.96-1.92c0.515-0.512,0.96-0.96,0.96-1.92c-0.445,0-0.96,0.96-0.96,1.409
		c-0.96,0.512-1.406,0.96-0.96,1.92c-0.446,0-0.446,0.512-0.96,0.512c-0.446,0-0.446,0.449-0.958,0.96h-0.448
		c-0.511,0.448-0.511,1.406-1.471,1.406c-0.449,0-0.449,0-0.449,0.515c-1.471,0.446-2.432,1.406-3.841,1.92
		c-1.472-0.514-2.432-1.474-2.432-3.393c0-1.474,2.688-5.57,3.841-7.17c0.511-1.471,1.471-1.92,2.432-2.88
		c1.409-1.472,2.881-2.432,5.247-3.392c1.475-0.96,2.881-0.96,4.801-1.407c0.511,0,0.511,0.447,0.511,0.447l2.881-4.287
		c0.449-0.515,0.449-1.473,0.96-1.921c0.96,0,0.96,0.96,1.409,1.921c0,0-0.449,0.445-0.449,0.96
		c-0.511,1.406-0.511,2.366-1.471,3.327c0,0.511-0.449,0.511-0.449,0.96v0.96c-0.511,0.512-0.96,0.96-0.96,1.471
		c-0.511,0.96-0.96,2.37-1.472,3.841c-0.449,0.449-0.96,1.41-1.409,1.921c-0.512,0.96-0.512,1.92-1.472,2.369
		c-0.446,1.92-1.921,3.838-2.881,5.758v0.514h-0.446c-0.515,0.446-0.515,1.406-0.96,1.919c-0.514,0.959-0.96,1.408-1.473,2.368
		c0.958,0,1.918,0.511,2.879,0.96c0.515,0,1.475,0.511,1.92,0.96c0.96,0,1.472,0.514,2.432,1.471c-0.512,0-1.472-0.511-1.472-0.957
		h-1.406c-0.065,0-0.515-0.131-0.515-0.514c0,0-0.445,0-0.96-0.449c-0.96-0.511-1.406-0.96-2.879-0.96
		c-1.408,2.88-2.879,4.801-4.289,7.679c0,0,0,0.452-0.511,0.452c-0.96,1.919-2.369,3.84-3.329,6.272c0,0,0,0.445-0.512,0.445
		c-0.449,2.432-1.92,4.353-2.881,6.272c-0.449,0-0.96,0.452-0.96,0.452c0,0.511-0.448,0.511-0.448,0.958
		c-0.96,0.511-0.96,1.474-1.919,1.474c-0.513,1.403-2.433,0.957-2.433,2.366c-0.96-0.446-0.96,0.512-1.407,0l-0.96,0.957
		c0,0,0-0.445-0.512-0.445c-0.448,0-0.448,0.445-0.959,0.445c0,0,0-0.445-0.449,0c-0.511,0-0.511,0.513-0.96,0.513h-3.841
		c-0.511,0-0.511-0.513-0.96-0.513c-0.512,0-0.96,0.513-1.472,0.513c-0.449,0-0.449-0.513-0.449-0.958c-0.96,0-1.92,0-2.432-0.958
		c2.432,0.446,4.352,0,6.272,0c1.409-0.517,2.88-0.963,3.84-1.474c1.409-0.446,2.367-1.409,3.327-1.92
		c1.474-1.41,2.881-1.921,3.84-3.33c0.96-0.958,1.92-2.432,2.881-3.39c0,0-0.449-0.451,0-0.451h0.512l1.409-2.878
		c0.96-0.964,1.92-2.433,2.881-3.841c0.511-1.475,1.471-2.878,2.432-3.841c0-0.446-0.321-0.512-0.449-0.512
		c0.449-0.13,0.898-1.475,0.898-1.92l1.471-2.881c-1.471,0.511-3.392,0.511-4.352,0c-0.449,0.511-2.369,0.511-3.33,0
		c-0.96,0.96-2.88,0.511-4.353,0.511c-0.447,0.96-1.92,0.449-2.88,0.449c-0.446,0.511-0.96,0.511-1.407,0.511
		c-0.96,0.449-1.92,0-2.432,0.449C48.468,71.166,45.139,72.569,44.178,72.569z M74.388,49.082c-0.445,0.448-0.96,1.409-1.92,1.92
		v0.96c-1.918,0.96-2.366,2.37-3.837,3.33c0,0.511-0.449,0.96-0.96,1.471c-0.96,0.96-1.409,2.369-2.37,3.841
		c0,0.96-0.96,0.96-0.96,1.92c6.722-2.881,11.008-8.193,13.889-14.915c-0.96,0-1.409,1.472-2.367,0.512
		C75.348,48.57,75.348,49.082,74.388,49.082z"/>
	<path fill="#676767" d="M89.364,44.155c1.475,2.047,0.449,5.119-0.318,7.102c0.767-0.96,2.176-3.52,3.392-5.055
		c0.639-0.832,1.022-1.025,1.6-2.047c0.449-0.449,0.833-1.475,1.343-1.475c1.026,0,2.881,1.025,4.353,1.025
		c0.193,1.407-0.19,2.943,0.065,4.415c-1.025,1.025-1.471,1.537-2.497,3.074c-0.96,0-1.472,0-1.983,0.449
		c1.022-1.474,1.855-4.162,2.11-6.659c-0.96,0-1.855,1.347-2.88,1.792c0,0-0.511,0-0.767,0.577
		c-1.472,1.281-1.793,2.048-2.432,2.687c-0.128,0.515-1.088,1.986-1.472,2.37c-0.257,0.449-0.514,0.449-1.025,0.96
		c-0.767,1.471-0.449,0.96-1.216,2.048c-0.256,0.576-0.512,1.022-1.022,1.471c-0.259,1.025-0.259,0.705-0.515,1.728
		c-0.383,0.514-0.318,0.705-0.767,1.215c-0.767,2.048-2.176,3.009-2.304,5.506c-0.511,0-0.511,0.577-1.472,0.577
		c-0.514-0.577-0.96-1.216-0.96-1.792c-0.512-1.472,0.895-2.432,1.15-4.031c1.025-1.474,1.537-3.522,2.497-5.505
		c0.705-1.6,1.215-2.369,1.792-4.352c0.383-1.026,0.833-2.688,0.577-4.674v-1.022c0-1.025-0.705-1.537-1.282-2.048
		C86.355,43.002,88.085,43.195,89.364,44.155z"/>
	<path fill="#676767" d="M117.013,41.848c-0.512,0.96-0.191,0.705-0.702,1.665c0.511,0.448,1.406,0.897,1.855,0.448
		c0,0.449,0.449,0.449,0.449,0.96c-1.409,0.384-2.304-0.193-3.202,0.321c-1.15,2.56-2.753,5.119-3.648,6.975
		c-0.767,1.537-0.96,1.729-1.343,2.69c-0.705,1.92-0.96,1.855-1.409,3.648c0,0.511-0.384,1.343-0.384,1.343
		c0,1.409-0.576,2.753-0.128,4.608c1.088,0.576,2.815-1.537,3.521-2.177c0.96-1.343,2.625-1.792,3.136-2.752
		c2.943-2.495,4.479-4.224,6.465-7.295c0,0.895-0.642,0.96-0.642,1.854c-0.511,0.96-1.471,1.216-1.471,2.625
		c-0.449,0.449-0.833,0.577-0.833,1.023c-0.895,1.219-1.023,0.705-1.728,1.537c0,0.383-0.321,0.193-0.321,0.704
		c-0.895,1.344-1.406,2.943-2.815,3.33v0.96c-1.344,0.446-1.537,1.534-2.88,1.983c0,0,0-0.449-0.449-0.449
		c-0.96,0.449-1.343-0.446-2.304-0.446l-0.895-0.96c-0.448-0.386-0.511-0.386-0.511-0.386c-0.898-1.406-0.259-4.352,0.255-6.142
		c-1.282,2.366-2.114,3.392-3.008,4.736c-0.449,0.511-1.41,1.406-1.793,1.792c-0.96,0-1.409,0.96-1.855,0.96
		c-0.898,0-1.792,0.446-2.752,0c-0.898-0.448-1.344-1.346-2.242-1.857c-0.511-3.136,1.344-6.401,3.137-8.639
		c0.511-0.449,0.511-0.898,0.96-1.409c1.41-1.409,2.432-2.625,4.546-4.545c0.448,0,1.343-0.895,1.855-1.344
		c0.898-0.449,1.344-0.895,2.241-1.407c0.446,0,0.446-0.13,0.895-0.642c0.511,0,0.898-0.255,0.898-0.255
		c1.406-0.384,3.199-1.344,4.095-1.344c0.64-0.576,0.703-0.704,0.958-1.215c0.386-0.449,1.281-1.921,2.177-1.921
		C116.695,41.337,116.501,41.402,117.013,41.848z M104.149,52.345l-1.471,2.242l-2.048,2.943c-0.514,0.705-0.897,1.73-1.282,2.242
		c-0.511,0.767-0.639,1.537-0.767,1.665c0,0.511-1.154,1.792-0.832,2.367c0.895,0,2.048-0.574,2.88-1.151
		c1.022-0.705,1.727-1.088,2.56-1.986c0.449-0.511,1.727-1.278,1.727-1.792c0.383,0,0.577-0.639,1.344-1.662
		c0.642-0.897,1.474-2.176,2.114-3.713c0.449-0.511,0.449-0.96,0.895-1.792c0.449-0.895,3.33-5.247,3.713-6.145
		c-0.96,0.193-3.265,1.665-4.545,2.753C106.775,49.723,105.621,50.556,104.149,52.345z"/>
	<path fill="#676767" d="M138.902,30.968c0.96-1.406,1.088-1.855,2.048-3.775c0.446-0.449,0.384-1.409,0.833-2.497
		c0.511-0.512,1.534-1.662,1.983-2.622v0.19c1.406-1.983,2.625-4.352,4.095-6.272c2.05-2.753,4.16-4.799,6.532-7.36
		c0.826-0.511,1.659-1.278,2.557-2.239c1.475-0.513,2.432-1.665,4.353-1.792c0.32-0.449,0.963-0.065,0.833-0.511
		c0.576,0.96,0.576,1.92,1.533,2.111c-0.125,1.92,0.833,2.88,0.518,4.801c-0.577-0.449-0.643-0.96-1.153-1.727
		c-1.921,0.128-3.717,1.854-5.441,2.877c-0.962,0.96-2.883,1.73-3.649,3.202c-1.79,0.321-2.241,2.687-3.39,4.159h-0.451
		c-0.513,0.449-0.958,1.409-1.469,2.69c-1.285,1.92-3.009,3.84-3.842,6.401c0,0.446-0.511,0.446-0.511,0.96
		c-1.795,2.367-2.179,4.542-3.972,7.423c-0.96,1.471-0.829,1.92-1.79,3.33c0,0.511-0.898,1.855-0.898,2.304
		c-0.511,1.472-0.32,1.343-1.278,3.264c-0.96,1.409-1.73,4.096-2.69,6.463v-0.446c-0.446,0.96-0.96,1.407-0.96,2.367
		c-0.445,0.96-0.445,1.92-0.445,2.88c-0.514,0.512-0.96,0.512-0.96,0.96v1.472c-0.514,0.449-0.514,0.449-0.514,0.96v0.96
		c-0.446,0.96-0.96,2.369-0.96,2.88c0,0.96,0.449,1.088,0.449,2.048c1.409,0.449,3.52-0.193,4.479-1.153
		c0.96-0.958,2.114-1.79,3.33-3.199c1.15-1.471,1.92-3.071,2.367-4.031c0,2.878-3.393,6.335-4.353,8.705
		c-0.512,0-0.512,0-0.512,0.511c-0.449,0-0.449,0.449-0.449,0.96c-0.511,0-0.957,0.449-1.472,0.96c-0.96,0-1.406,0.449-2.366,0.449
		h-0.514l-2.367-2.37v-1.92c0-2.432,0.448-5.247,1.216-7.682c0-0.512,0.577-2.495,0.577-2.495c0.446-0.96,0.255-1.602,0.703-2.559
		c-0.448,0.511-1.346,1.79-1.856,2.943c-0.449,1.023-0.64,1.15-1.15,2.111c-0.96,0.96-1.41,1.92-2.37,2.881v1.409
		c-0.96,0.96-1.92,1.472-2.88,2.432c-0.96-0.511-1.472-0.511-2.432,0c0-0.511-0.96-0.511-1.409-0.96c0-0.96-0.511-0.96-1.472-1.472
		c-0.321-0.896-0.383-1.727-0.449-2.304c-0.062-0.577,0.257-1.92,0.257-1.92l0.704-1.281l0.449-0.704v-0.512
		c0,0,0.96-0.446,0.511-0.96c0.449,0,0.449-0.446,0.96-0.446c0.449-1.475,1.409-2.435,1.92-3.394c0.96-0.958,1.92-2.368,2.88-2.879
		c1.409-1.409,2.881-1.92,4.289-3.329c0.958-0.512,1.918-0.512,2.433-1.472c1.406,0.256,1.471,0.19,2.366,0.96
		c1.537-3.647,1.858-3.905,3.33-8.193C137.749,35.13,138.454,32.056,138.902,30.968z M129.366,46.138
		c-0.96,0.96-2.432,1.92-2.432,3.33c-0.449,0.511-0.449,0.958-1.409,1.471c0,0.96-0.96,1.406-1.472,2.367
		c-0.449,0.514-0.449,0.96-0.96,1.474c0,0.446-0.449,0.958-0.449,1.406c-0.96,1.92-1.92,3.392-2.432,5.312
		c3.841-1.472,6.722-5.312,8.641-8.639c0.512-0.514,0.958-1.474,1.472-1.92c0.446-0.513,0.96-1.471,1.407-2.432
		c0.514-1.409,1.537-2.753,1.665-4.29c-0.64,0-1.216,0.449-1.665,0.449C131.286,45.178,130.326,45.626,129.366,46.138z"/>
	<path fill="#676767" d="M143.892,53.82c-0.511,0.574-1.537,1.662-1.537,2.688c-1.088,1.537-1.406,4.991-2.495,7.105
		c1.6,0,2.815-1.409,4.418-1.986c0.511-1.534,1.98-1.92,3.52-4.097c1.344-2.494,1.344-3.264,2.367-4.798
		c0.511-1.025,1.152-2.048,1.664-2.562c0.512-1.023,1.088-2.688,2.11-3.136c0-1.089,0.512-1.662,0.512-2.111
		c0-0.576-0.512-0.576,0-1.088c0.577,0,1.6,1.537,1.6,2.11c0,0.515-0.512,0.515-0.512,1.089v0.449l-0.256,0.576
		c0,0.577-0.255,0.512-0.255,1.088c-0.577,0.449-1.089,1.023-1.089,1.537c-0.511,0.574-0.511,1.6-1.022,2.11
		c-0.576,1.026-1.6,2.688-1.6,3.713c-0.511,0.511,0,1.088-0.511,1.088v1.023c-0.452,1.344-0.898,2.241-1.089,3.65
		c-0.255,1.662-0.511,3.776,1.089,4.798c0.892,0.515,1.6,0.833,2.688,0.833v0.128c0,0.065,0,0.065-0.065,0.128h-2.111
		c-1.087,0-2.11-1.088-3.198-1.088c-1.54-1.599-1.028-5.247,0-7.36c-0.518,0-1.028,0.449-1.54,1.537c0,0.577-0.576,0.577-1.088,1.6
		l-0.512,0.514c-0.511,0.574-1.599,0.574-2.11,1.6c-1.602,1.537-4.738,0.511-5.827-1.6c0.515-3.65,2.114-5.761,3.202-8.963
		c1.023-1.6,1.344-3.199,2.432-5.247c0.896-1.727,1.603-3.775,1.603-5.889c0-0.511-0.256-0.639-0.321-0.639
		c1.022,0.062,2.622,1.728,3.133,2.304C146.579,48.57,144.979,50.684,143.892,53.82z"/>
	<path fill="#676767" d="M175.188,41.848c-0.511,0.96-0.19,0.705-0.701,1.665c0.511,0.448,1.409,0.897,1.855,0.448
		c0,0.449,0.445,0.449,0.445,0.96c-1.408,0.384-2.301-0.193-3.199,0.321c-1.152,2.56-2.752,5.119-3.649,6.975
		c-0.768,1.537-0.958,1.729-1.345,2.69c-0.701,1.92-0.956,1.855-1.403,3.648c0,0.511-0.386,1.343-0.386,1.343
		c0,1.409-0.577,2.753-0.131,4.608c1.089,0.576,2.817-1.537,3.524-2.177c0.958-1.343,2.623-1.792,3.135-2.752
		c2.943-2.495,4.483-4.224,6.462-7.295c0,0.895-0.636,0.96-0.636,1.854c-0.511,0.96-1.475,1.216-1.475,2.625
		c-0.445,0.449-0.832,0.577-0.832,1.023c-0.897,1.219-1.022,0.705-1.73,1.537c0,0.383-0.314,0.193-0.314,0.704
		c-0.897,1.344-1.41,2.943-2.818,3.33v0.96c-1.344,0.446-1.534,1.534-2.88,1.983c0,0,0-0.449-0.45-0.449
		c-0.956,0.449-1.344-0.446-2.301-0.446l-0.897-0.96c-0.446-0.386-0.512-0.386-0.512-0.386c-0.897-1.406-0.256-4.352,0.256-6.142
		c-1.278,2.366-2.111,3.392-3.008,4.736c-0.446,0.511-1.41,1.406-1.796,1.792c-0.957,0-1.403,0.96-1.855,0.96
		c-0.892,0-1.79,0.446-2.752,0c-0.893-0.448-1.345-1.346-2.236-1.857c-0.518-3.136,1.344-6.401,3.134-8.639
		c0.511-0.449,0.511-0.898,0.963-1.409c1.403-1.409,2.432-2.625,4.543-4.545c0.445,0,1.344-0.895,1.854-1.344
		c0.897-0.449,1.344-0.895,2.241-1.407c0.446,0,0.446-0.13,0.897-0.642c0.513,0,0.893-0.255,0.893-0.255
		c1.408-0.384,3.204-1.344,4.097-1.344c0.642-0.576,0.707-0.704,0.963-1.215c0.38-0.449,1.278-1.921,2.176-1.921
		C174.867,41.337,174.677,41.402,175.188,41.848z M162.321,52.345l-1.469,2.242l-2.051,2.943c-0.512,0.705-0.892,1.73-1.278,2.242
		c-0.512,0.767-0.643,1.537-0.768,1.665c0,0.511-1.152,1.792-0.832,2.367c0.897,0,2.046-0.574,2.878-1.151
		c1.029-0.705,1.73-1.088,2.563-1.986c0.445-0.511,1.729-1.278,1.729-1.792c0.382,0,0.572-0.639,1.345-1.662
		c0.636-0.897,1.469-2.176,2.11-3.713c0.446-0.511,0.446-0.96,0.897-1.792c0.446-0.895,3.324-5.247,3.71-6.145
		c-0.958,0.193-3.264,1.665-4.542,2.753C164.949,49.723,163.797,50.556,162.321,52.345z"/>
	<path fill="#676767" d="M186.709,62.075c1.473-1.471,3.008-3.009,4.477-4.992c0-0.514,1.028-1.025,1.028-2.048
		c0.512,1.022-1.028,1.534-0.452,2.56c-0.576,0.449-1.534,1.023-1.534,1.471c-1.021,0.512-1.021,2.048-2.046,2.56
		c0,1.025-1.027,0.449-1.027,1.471c-0.445,0.515-0.958,0.515-0.958,1.026c-1.021,0.511-1.539,1.022-2.497,1.537
		c0,1.022-1.021,0.446-1.021,1.471c-1.029-0.449-1.54,0-2.563-0.449c-1.985-0.577-3.073-1.537-3.585-3.071
		c0-0.515-0.446-0.96,0-1.537c0-0.96,0-1.983,0.512-3.009v-1.471c0.516-1.537,1.54-3.585,2.051-4.545
		c0.446-1.534,0.446-2.494,1.469-3.52v-1.022c2.052-3.522,2.818-7.042,4.804-10.625c0.512-0.96,1.023-2.498,1.47-3.458
		c0.576-1.026,1.027-1.537,1.539-2.048c0.512-1.537,1.534-3.009,2.046-4.545c0.451-0.512,0.707-1.278,1.153-1.728
		c1.022-1.537,1.534-3.071,2.562-4.607c0.447-1.472,1.469-2.498,1.98-4.034c0.517,0,0.517-0.446,0.517-0.446
		c1.023-2.048,1.981-3.585,3.003-5.057c0.518-1.025,2.372-2.304,3.33-3.775c2.052-1.986,3.906-5.057,7.938-5.571
		c0.446,0,0,1.025,0.446,1.537c0,0.511,1.027,1.025,1.539,1.471v1.026c0.512,0.511,1.022,1.022,0.512,2.048
		c-1.023,0-1.023-1.025-1.475-1.537c-0.576,0-0.576,0.511-1.022,0.511h-1.022c-0.512,0-0.512,0.515-1.023,0.515
		c0,0.511-0.513,0.511-0.963,0.511c-0.576,0.512-0.576,0.96-1.022,1.983c-0.512,0-1.534,0.513-1.534,1.026
		c-1.028,1.022-1.475,1.983-2.051,2.56c0,0.449-0.446,0.449-0.446,0.449c-1.54,2.56-3.009,6.08-5.571,8.062
		c-0.511,2.048-2.045,4.034-3.009,6.083c-1.022,1.983-2.045,3.52-3.519,6.017c0,0.511-0.513,1.023-1.023,2.048
		c-0.642,0.128-0.707,1.662-1.022,1.983c-1.985,3.585-3.52,7.616-5.571,11.073c0,0.577-0.445,1.023-0.445,1.537
		c-0.513,0.511,0,1.534-0.513,2.045c0,0.449-1.027,1.475-1.027,1.986c-0.512,1.023-1.023,2.048-1.023,3.52
		c0,0.512-0.445,1.026-1.022,1.538c0,0.511,0.577,1.022,0.577,1.022c0,0.449-0.577,0.449-0.577,1.025
		c0,0.96,0.577,1.472,0.577,2.494C182.165,66.106,184.657,63.612,186.709,62.075z"/>
	<path fill="#676767" d="M200.851,62.203c1.218,2.113,4.031,4.224,6.528,2.625c1.534-1.088,2.366-3.202,2.366-5.762
		c-0.19-2.687-2.492-5.889-2.111-9.025c0-1.088,0.512-1.534,0.898-2.622c1.533-0.577,1.468-2.176,2.497-2.69
		c0-0.574,1.725-0.446,1.98-1.023c1.087-0.511,1.664-0.511,2.116,0c1.277,0.577,1.277,0.577,1.855,1.023
		c1.021,1.088,0.445,0.577,1.021,1.665c0,0.193,0.065,0.96,0.19,1.537c0,0.577,0,1.6-0.576,2.111
		c-1.023,0.577-1.534,1.026-2.557,1.026c0-0.449,0.19,0-0.387-0.577c1.599-0.512,2.242-4.801,0.708-5.889
		c-1.665,0.512-2.242,2.114-3.14,4.224l-0.381,0.128c0,1.088-1.028,1.665-0.387,3.202v1.6c0.768,2.113,2.308,4.736,1.476,7.426
		l-1.089,1.023c0.19,0.511,0.19,0.511,0.19,1.088c-0.446,0-0.446,0.449-1.022,0.449c-0.511,0.576-1.089,1.664-1.54,1.664
		c-0.576,0.446-0.576,0.446-1.089,0.446c-0.576,0-1.408,0.577-2.496,0.577c-0.446,0.512-1.534,0-2.111,0
		c-0.445,0-0.636-0.577-1.533,0c-0.768-1.599-1.796-2.111-1.796-3.136c-0.702-2.111,0.387-4.225,1.219-5.889
		c0-0.446,0.511-1.023,0.511-1.023h0.577c0,0,0.702-0.321,1.215-0.77c-0.959,0.898-1.857,1.537-2.303,2.881
		C201.296,59.066,200.274,61.18,200.851,62.203z"/>
	<path fill="#676767" d="M228.306,62.587c-0.446,0.511-0.958,0.511-1.344,1.025c-0.897,0.511-1.409,1.022-2.366,1.534
		c0,0.898-0.898,0.321-0.898,1.347c-1.022-0.449-1.533,0-2.557-0.449c-1.54-0.577-2.562-1.409-2.692-2.946
		c0-0.511-0.315-0.895,0-1.406c0-0.96,0-1.986,0.897-2.881V57.34c0.897-1.41,1.535-3.458,2.051-4.418
		c0.768-1.406,1.089-2.432,1.6-3.52c0,0,0.445-1.023,0.701-1.665c-0.832,0-1.212-0.128-1.729-0.19
		c-1.915-0.448-2.368-1.792-1.98-4.224c0.636,0.062,0.576,0.639,0.893,0.833c1.218,0.958,1.349,1.088,3.715,1.088
		c0.38-0.514,0.897-1.475,0.38-1.92c0.964-0.515,0.964-1.92,1.861-2.881c0.446-1.92,1.665-3.264,1.214-5.695
		c0.386-1.41-0.447-2.625-0.958-3.585c0.125-0.193-0.131-0.256,0.38-0.256c0.453,0,0.453,0.19,0.964,0.639l0.446,0.321
		c0,0,0,0.96,0.511,0.511c0.964,0.96,1.985,2.37,1.985,4.29c0,0.957-0.701,1.855-1.218,3.265c-0.833,1.471-1.725,3.709-2.11,5.119
		c0.451,0,1.729,0.063,2.241,0c1.73-0.256,3.584-0.384,3.966-0.96c-0.06,0.065,1.985-0.256,2.432-0.256
		c-1.404,0.96-2.623,2.304-3.9,2.753c-0.964-0.193-2.111,0.574-2.562,0.574c-0.898,0.514-2.558,0.321-3.33,0.642
		c0,0.577-0.957,1.727-1.278,2.688c-0.321,1.153-0.957,2.432-1.472,2.943c0,0.448-0.829,1.474-0.829,1.986
		c-0.897,0.895-1.409,1.92-1.409,3.392c0,0.383-0.833,0.895-1.219,1.409c0,0.511,0.386,1.022,0.386,1.022
		c0,0.449-0.386,0.449-0.386,0.96c0,0.895,0.065,1.409,0.065,2.432c2.432,0.833,5.185-1.537,7.104-2.943
		c1.409-1.537,3.134-3.009,4.543-5.057c0-0.512,1.343-0.897,1.343-1.921c0.388,0.96-1.343,1.409-0.767,2.432
		c-0.576,0.449-1.473,1.088-1.473,1.537c-0.959,0.383-1.279,1.921-2.237,2.497c0.06,0.96-0.963,0.446-0.963,1.344V62.587z"/>
	<path fill="#676767" d="M248.53,57.53c-0.446,0.514-1.344,1.026-1.789,1.537c0,1.41-0.964,1.921-0.964,2.881
		c-0.957,0.449-0.957,0.96-1.92,1.409c-1.469,0.96-2.878,1.472-4.353,2.432c-0.957,0-1.409,0-2.366-0.514
		c-0.964-0.446-1.475-0.446-1.92-1.407c-0.964-0.511-2.177-0.96-2.623-1.92c-1.92-7.233,4.668-12.738,7.551-16.576
		c1.469-0.96,2.944-1.92,3.39-2.369c1.475,0.449,2.432,0.959,3.841,1.409c0.963,1.921-0.636,5.057-1.6,6.463v0.96
		c-0.511,0.511-0.957,0.96-1.47,1.92c-0.962,0-1.919,0.96-2.882,1.472c-0.958-0.512-1.921-1.472-3.33-1.472
		c-0.511,0-0.957,0.96-0.957,1.472c-0.511,0.96-1.475,3.84-1.475,5.25c0,0.96,0.511,1.92,0.964,2.88
		c2.877-0.449,6.528-2.369,8.448-4.29l2.878-2.88l0.446-0.511c0.963-0.96,1.92-2.369,2.883-3.33
		C250.838,53.754,248.53,55.609,248.53,57.53z M238.096,52.794c2.372,0,3.33-1.409,4.805-2.368c0.445-0.513,0.957-0.513,0.957-0.958
		c0-0.515,0,0,0.45-0.515c0.513-0.446,1.66-2.304,1.149-3.775c-0.446,0-0.446-0.449-0.958-0.449
		C242.129,46.649,239.505,49.913,238.096,52.794z"/>
	<path fill="#676767" d="M264.659,57.53c-0.45,0.514-1.343,1.026-1.794,1.537c0,1.41-0.958,1.921-0.958,2.881
		c-0.963,0.449-0.963,0.96-1.921,1.409c-1.475,0.96-2.877,1.472-4.352,2.432c-0.963,0-1.409,0-2.366-0.514
		c-0.964-0.446-1.475-0.446-1.921-1.407c-0.964-0.511-2.176-0.96-2.627-1.92c-1.921-7.233,4.673-12.738,7.556-16.576
		c1.469-0.96,2.943-1.92,3.39-2.369c1.475,0.449,2.432,0.959,3.841,1.409c0.962,1.921-0.642,5.057-1.6,6.463v0.96
		c-0.511,0.511-0.963,0.96-1.475,1.92c-0.957,0-1.921,0.96-2.878,1.472c-0.963-0.512-1.92-1.472-3.329-1.472
		c-0.512,0-0.957,0.96-0.957,1.472c-0.511,0.96-1.475,3.84-1.475,5.25c0,0.96,0.511,1.92,0.964,2.88
		c2.877-0.449,6.527-2.369,8.443-4.29l2.882-2.88l0.446-0.511c0.963-0.96,1.92-2.369,2.884-3.33
		C266.962,53.754,264.659,55.609,264.659,57.53z M254.226,52.794c2.366,0,3.329-1.409,4.8-2.368c0.45-0.513,0.961-0.513,0.961-0.958
		c0-0.515,0,0,0.446-0.515c0.512-0.446,1.665-2.304,1.153-3.775c-0.445,0-0.445-0.449-0.957-0.449
		C258.257,46.649,255.635,49.913,254.226,52.794z"/>
	<path fill="#676767" d="M273.685,37.306c0.511,0,0,0.511,0.511,0.511c1.023,1.472,1.47,3.008,1.023,5.057
		c-0.512,0.449-1.023,1.023-1.023,1.983c-0.511,0.515-0.642,0.833-0.642,1.41c-0.445,0.449-1.469,2.304-1.469,2.752
		c2.046-2.048,6.142-5.696,9.216-3.136c0,0.449,0.446,1.472,0,2.048v0.96c-0.577,1.022-1.027,2.048-1.599,3.071
		c0,0.96-0.452,1.472-0.964,1.986c-0.512,0.446-0.512,1.472-1.022,2.048c-1.023,0.96-2.497,1.983-3.009,3.455
		c0,0-0.512,0-0.512,0.577c-0.962,1.472-3.008,2.432-4.03,4.031c-0.513,0-0.963,0.449-1.541,0.449c0,0.511-0.445,0.511-1.021,1.025
		c-0.446,0-1.475-0.515-1.986,0c0-0.515,0.321,0.128,0.321-0.833c1.537-0.577,3.265-2.241,4.228-3.713
		c0.511-0.511,1.022-0.96,1.469-1.537c0.576-1.022,1.6-1.983,2.562-2.494c0.512-0.96,1.023-1.986,1.47-2.562
		c0.576-0.96,0.576-1.983,1.027-2.432c1.023-2.048,2.046-3.582,2.558-5.63c-1.98,0.573-4.156,1.727-5.696,2.75
		c-0.445,0.514-0.898,0.959-1.92,1.985c-0.446,0.449-1.469,1.855-1.981,2.88v0.446c0,0.577-0.45,0.577-0.45,1.026
		c-0.578,1.537-1.023,3.008-2.046,4.607c-0.51,1.472-1.54,3.458-2.562,4.991c-0.446,1.475-1.022,3.074-1.475,4.034
		c-0.511,1.023-1.022,2.495-1.534,3.517c0,0-0.445,0.517-1.021,1.028v1.533c-0.452,0-0.452,0.447-0.452,1.023
		c-0.571,0.452-1.023,1.475-1.534,1.986c-1.153,0.767-1.731,5.631-1.731,5.826c-0.511,1.022-0.511,2.046-0.956,2.557
		c0,0.511-0.577,1.027-0.577,1.027c-0.445,1.024-0.445,2.047-0.445,2.493c-0.577,1.027-1.023,1.539-1.023,1.985
		c-0.517,2.562-0.517,4.607-1.54,7.104c-2.044,0.512-2.497-2.497-2.044-5.053c0.576-1.029,0.576-2.498,1.146-3.526
		c0-0.957,0.452-2.557,0.964-3.521c0.511,0,0-0.511,0.511-1.021c0-1.023,0.512-1.469,0.512-2.046
		c1.344-3.009,2.176-4.607,2.687-6.338c0.578-2.051,1.54-3.52,2.563-5.06c0.445-2.045,1.921-4.028,2.497-5.503
		c0.445-1.022,0.957-2.048,1.469-3.008c0-0.574,0.511-1.599,0.511-2.56c1.028-0.511,1.028-1.472,1.475-2.494
		c1.534-4.611,4.03-9.091,6.082-14.148c0.958-2.559,3.009-6.014,0.958-8.576C272.655,36.795,273.233,37.306,273.685,37.306z"/>
</g>
</svg>
